<svg width="512" height="512" xmlns="http://www.w3.org/2000/svg">
 <defs>
  <linearGradient y2="1" y1="0" x2="1" x1="0" id="lorc-coffee-mug-gradient-2">
   <stop stop-color="#afafad" offset="0%"/>
   <stop stop-color="#535352" offset="100%"/>
  </linearGradient>
  <linearGradient id="lorc-coffee-mug-gradient-3" y2="1" y1="0" x2="1" x1="0">
   <stop stop-color="#cf813b" offset="0%"/>
   <stop stop-color="#6f471f" offset="100%"/>
  </linearGradient>
  <linearGradient id="lorc-coffee-mug-gradient-4" y2="1" y1="0" x2="1" x1="0">
   <stop stop-color="#c67e40" offset="0%"/>
   <stop stop-color="#8b572a" offset="100%"/>
  </linearGradient>
 </defs>
 <g>
  <title>Layer 1</title>
  <g id="svg_1">
   <g id="svg_2" transform="translate(25.6, 25.6) scale(0.9) skewX(0) skewY(0)">
    <path id="svg_3" fill="url(#lorc-coffee-mug-gradient-2)" d="m221.97,54.406c-40.375,0 -77.013,8.01 -104.345,21.563c-27.332,13.551 -46.688,33.541 -46.688,58.031c0,2.57 0.213,5.094 0.626,7.563l-0.032,5.875c-0.555,82.898 16.25,164.612 14.97,244.718c-0.372,23.295 14.294,43.908 38,57.594c23.706,13.686 56.797,21.5 97.125,21.5c40.357,0 71.338,-8.024 92.906,-22.03c21.57,-14.008 33.408,-34.712 33.408,-56.908c0,-3.17 0.054,-6.345 0.125,-9.53c42.143,-1.114 75.316,-23.45 97.125,-52.563c22.235,-29.684 34.027,-66.306 34.687,-99.626c0.66,-33.32 -9.983,-66.91 -39.156,-80.594c-14.588,-6.842 -30.593,-6.573 -49.25,-1.125c-6.16,1.798 -12.548,4.25 -19.126,7.375c0.07,-2.93 0.125,-5.86 0.125,-8.75l0,-6.72c0.33,-2.214 0.5,-4.484 0.5,-6.78c0,-24.49 -19.357,-44.478 -46.69,-58.03c-27.33,-13.554 -63.937,-21.564 -104.31,-21.564l0,0.001z"/>
    <path id="svg_4" fill="url(#lorc-coffee-mug-gradient-3)" class="selected" d="m221.97,73.094c37.87,0 72.087,7.752 96.03,19.625c23.943,11.87 36.28,26.974 36.28,41.28c0,14.306 -12.337,29.44 -36.28,41.313c-23.943,11.87 -58.16,19.593 -96.03,19.593c-37.87,0 -72.09,-7.722 -96.032,-19.594c-23.943,-11.87 -36.313,-27.006 -36.313,-41.312c0,-14.306 12.37,-29.41 36.313,-41.28c23.942,-11.874 58.16,-19.626 96.03,-19.626l0.002,0.001z"/>
    <path id="svg_5" fill="url(#lorc-coffee-mug-gradient-4)" d="m152.313,112.124c-23.19,6.707 -37.907,16.684 -37.907,27.814c0,20.193 48.398,36.562 108.094,36.562c59.696,0 108.063,-16.37 108.063,-36.563c0,-10.264 -12.52,-19.546 -32.657,-26.187c5.266,4.105 8.22,8.692 8.22,13.563c0,17.186 -36.765,31.124 -82.126,31.124c-45.36,0 -82.125,-13.938 -82.125,-31.125c0,-5.518 3.788,-10.693 10.438,-15.187l0,-0.001z"/>
    <path id="svg_6" fill="#ffffff" d="m415.625,180.406c4.34,-0.023 7.825,0.793 10.53,2.063c10.826,5.076 18.406,22.81 17.908,48.124c-0.5,25.313 -9.714,55.51 -26.844,78.375c-16.296,21.75 -38.106,36.352 -67.126,37.905c4.352,-49.843 14.23,-100.49 19.28,-147.844c20.724,-13.842 35.894,-18.567 46.25,-18.624l0.002,0.001z"/>
   </g>
  </g>
  <g opacity="0.7">
   <g transform="translate(0)">
    <g transform="translate(25.6, 25.6) scale(0.9) skewX(0) skewY(0)">
     <path stroke-width="2" stroke="#000000" fill-opacity="0.45" fill="#fdf04b" class="selected" d="m269.31779,222.34955c-2.98835,0 -5.41134,1.48206 -8.19778,4.8056c-3.19027,3.80006 -6.25939,9.96253 -9.08621,17.53437c-5.45173,14.61871 -10.17656,34.36607 -15.99173,53.30578c7.87472,9.57081 14.98215,14.25526 21.84729,15.38599c6.78437,1.17111 14.01296,-1.00958 22.49342,-6.58246c3.87678,-18.69741 4.48253,-40.0601 2.26146,-56.68989c-1.13073,-8.35528 -2.94797,-15.51925 -5.24981,-20.40965c-2.26146,-4.8904 -4.76521,-7.00648 -6.74399,-7.26089c-0.44421,-0.06057 -0.88843,-0.08884 -1.33264,-0.08884z"/>
     <path stroke-width="2" stroke="#000000" fill="#f8e71c" d="m212.94289,285.79958c-1.09035,0 -2.18069,0 -3.27104,0.04038c-2.90759,0.08077 -5.89594,0.32307 -8.80353,0.68651c-11.79188,1.41341 -23.38185,4.96713 -31.29695,10.01502c-7.47089,4.76521 -11.42844,10.21694 -10.94384,16.92055c1.21149,0.12115 3.47295,0.04038 6.29977,-0.36345c5.73441,-0.68651 13.85143,-2.30184 22.49342,-3.43257c1.93839,-0.28268 3.91717,-0.4846 5.93633,-0.68651c10.7823,-8.23817 23.42224,-14.09372 36.06217,-14.33602c0.64613,-2.22107 1.33264,-4.44215 1.97878,-6.66322c-5.33058,-1.45379 -11.71112,-2.18069 -18.45511,-2.18069z"/>
     <path stroke-width="2" stroke="#000000" fill="#f8e71c" d="m289.75167,294.36081c-0.4846,3.87678 -1.09035,7.79395 -1.81724,11.54959c3.06912,1.33264 5.77479,3.19027 8.1574,5.41134c1.81724,-0.52498 3.5941,-1.04996 5.24981,-1.57494c4.40176,-1.41341 8.07663,-2.98835 9.32851,-4.03832c0.68651,-0.56536 0.60575,-0.7269 0.60575,-0.7269c0,0.04038 0.08077,-0.32307 -0.68651,-1.37303l-0.04038,-0.04038c-2.62491,-3.51334 -10.25732,-7.71318 -18.89932,-8.96506c-0.60575,-0.08077 -1.25188,-0.16153 -1.89801,-0.2423z"/>
     <path stroke-width="2" stroke="#000000" fill="#f8e71c" d="m229.94421,301.95284c-16.88016,0.20192 -36.38523,13.68989 -48.05597,28.26822c-6.01709,7.55165 -9.89388,15.30522 -10.62077,20.79733c-0.36345,2.70567 0.04038,4.72483 0.88843,6.13824c0.84805,1.41341 2.22107,2.50376 5.0479,3.23065c1.89801,0.44421 5.65364,-1.00958 10.58039,-4.84598c4.92675,-3.87678 10.70154,-9.61119 17.08208,-15.42637c12.2361,-11.18614 27.01634,-23.13955 44.17918,-21.96844c-6.54207,-2.98835 -12.84185,-8.3997 -19.10124,-16.19365z"/>
     <path stroke-width="2" stroke="#000000" fill="#f8e71c" d="m284.86531,312.53323c-9.16698,6.05747 -18.01089,9.20736 -26.8548,8.1574c3.95755,2.30184 7.10744,5.89594 9.49004,9.97464c3.5941,6.17862 5.97671,13.60913 8.27855,20.79733c2.30184,7.14782 4.52291,14.01296 7.1882,18.73779c2.70567,4.68445 5.20943,6.86514 9.16698,6.82475c3.51334,0 6.29977,-2.46337 8.52085,-7.71318c2.22107,-5.29019 3.3518,-12.963 2.8672,-20.91848c-0.44421,-7.99587 -2.42299,-16.23403 -5.85556,-22.89725c-3.14989,-6.05747 -7.39012,-10.62077 -12.80146,-12.963z"/>
     <path stroke-width="2" stroke="#000000" fill="#f8e71c" d="m246.25901,325.3347c-12.76108,0.32307 -25.19909,9.81311 -36.50638,20.1512c-6.21901,5.65364 -12.03418,11.46882 -17.48591,15.74943c-3.31142,2.62491 -6.62284,4.88636 -10.05541,5.93633c-12.59955,7.55165 -28.26822,13.64951 -48.01558,17.88974c0.29076,4.03832 1.36495,7.47089 2.75009,10.94384c3.88082,-1.09035 7.40627,-1.57494 10.6975,-1.93839l1.82128,-0.20192l1.2438,1.33264c15.26887,16.63786 33.6836,18.29357 53.30982,9.97464c19.62622,-8.31893 39.89857,-27.25864 55.93068,-51.93275c2.01916,-3.1095 3.87678,-6.13824 5.65364,-9.16698c-1.33264,-3.63448 -2.74606,-6.9459 -4.40176,-9.73234c-2.18069,-3.79602 -4.52291,-6.38054 -7.47089,-7.79395c-2.78644,7.95548 -7.1882,18.37434 -14.73986,28.75281c-12.2361,16.75901 -32.95266,33.51803 -68.20716,40.42355l-1.37303,-7.10744c33.55841,-6.62284 52.41735,-22.12997 63.72463,-37.59673c6.70361,-9.16698 10.66116,-18.29357 13.28606,-25.68369l-0.16153,0z"/>
     <path stroke-width="2" stroke="#000000" fill="#f8e71c" d="m127.02771,386.51519c-2.49972,0.44421 -5.05193,0.88843 -7.6728,1.29226c2.05954,4.44215 3.44468,9.20736 3.96563,14.33602c2.38261,-1.45379 4.64003,-2.66529 6.79649,-3.63448c-1.42149,-3.5941 -2.6451,-7.51127 -3.08931,-11.9938z"/>
    </g>
   </g>
  </g>
 </g>
</svg>